<svg xmlns="http://www.w3.org/2000/svg" version="1.1" xmlns:xlink="http://www.w3.org/1999/xlink" xmlns:svgjs="http://svgjs.com/svgjs" width="512" height="425"><svg width="512" height="425" viewBox="0 0 512 425" fill="none" xmlns="http://www.w3.org/2000/svg">
<rect width="512" height="425" rx="90" fill="#020202"></rect>
<path d="M143.59 212.682C145.402 214.938 147.502 217.229 149.891 219.556C180.093 248.909 200.054 268.736 209.772 279.036C217.184 286.903 217.714 299.287 212.772 308.713C207.248 319.291 193.112 326.556 181.852 321.187C179.229 319.947 175.228 316.527 169.851 310.928C150.45 290.753 130.778 270.856 110.835 251.236C98.0045 238.621 88.1567 227.848 90.2921 208.039C91.6805 195.247 97.0338 184.392 106.352 175.474C127.801 154.944 148.926 134.055 169.728 112.805C178.887 103.467 186.635 98.3469 199.112 102.404C214.22 107.33 220.626 127.032 211.925 140.25C208.948 144.739 204.783 149.552 199.43 154.69C180.617 172.727 162.033 191.414 143.679 210.75C143.09 211.376 143.061 212.02 143.59 212.682Z" fill="white"></path>
<path d="M397.564 271.044L312.166 271.193C298.267 271.217 287.02 282.504 287.044 296.403L287.048 298.457C287.072 312.356 298.359 323.603 312.257 323.579L397.655 323.43C411.554 323.406 422.801 312.119 422.777 298.22L422.773 296.166C422.749 282.267 411.462 271.02 397.564 271.044Z" fill="white"></path>
</svg><style>@media (prefers-color-scheme: light) { :root { filter: none; } }
</style></svg>